<?xml version="1.0" encoding="UTF-8"?>
<svg id="Layer_2" data-name="Layer 2" xmlns="http://www.w3.org/2000/svg" viewBox="0 0 894.6 894.6">
  <defs>
    <style>
      .cls-1 {
        fill: #f1edf0;
      }

      .cls-2 {
        fill: #1d213a;
      }

      .cls-3 {
        fill: #e93737;
      }

      .cls-4 {
        fill: #f9d542;
      }

      .cls-5 {
        fill: #9ad866;
      }
    </style>
  </defs>
  <g id="Layer_2-2" data-name="Layer 2">
    <rect class="cls-2" width="894.6" height="894.6"/>
    <g>
      <path class="cls-5" d="m449.26,437.08c3.52-7.36,6.3-13.16,9.18-19.18,92.69,31.6,164.77,90.47,218.83,172.21,9.49-5.94,17.14-10.73,25.37-15.88,16.02,37.89,15.91,77.72,14.49,119.72-36.75-19.65-72.35-38.77-102.63-68.33,10.28-4.94,19.65-9.45,30.15-14.51-46.15-79.53-104.23-145.35-195.39-174.06v.03h0Z"/>
      <path class="cls-5" d="m446.07,786.89c-8.26-36.18-22.56-69.76-25-106.75h30.25c.87-3.59,2.37-6.99,2.43-10.42.34-16.96-.25-33.95.54-50.87,1.24-26.5-3.08-52.35-7.84-78.17-2.26-12.29-4.24-24.73-7.92-36.61-4.91-15.84-11.45-31.15-17.06-46.78-.78-2.17-.36-4.79-.49-7.1,6.54-1.54,12.56-2.95,18.53-4.34,34.49,74.41,49.35,152.22,50.57,234.58,10.27.55,20.28,1.11,32,1.75-12.02,44.55-39.97,76.64-75.98,104.69h-.02Z"/>
      <path class="cls-4" d="m473.57,330.23c12.92-10.16,25.46-20.84,38.85-30.36,16.89-12.01,33.8-24.25,51.87-34.26,28.04-15.52,57.05-29.29,85.71-43.7,6.42-3.22,13.11-5.93,20.57-9.27-4.95-7.04-9.25-13.1-14.62-20.73,10.88-1.17,21.47-2.29,32.03-3.41.52-.06,1.05-.13,1.59-.21,12.45.03,24.91.06,37.35.09l.12.33.34-.07c14.97,1.66,29.95,3.31,46.55,5.15-24.21,26.29-48.25,49.22-78.69,66.61-2.57-6.84-5-13.25-8.05-21.35-87.44,33.92-172.22,71.15-235.99,142.25-7.01-3.83-12.51-6.86-18.1-9.92,2.19-2.93,4.19-5.61,6.18-8.29l.12-.06c2.54-2.53,5.09-5.06,7.62-7.57.37-.39.75-.78,1.12-1.17,1.15-1.14,2.31-2.28,3.44-3.41.25-.07.51-.16.78-.25,6.3-5.81,12.62-11.62,18.91-17.41.75-.99,1.53-1.99,2.29-2.99h.01,0Z"/>
      <path class="cls-5" d="m456.54,391.32c88.57-15.12,176.38-16.99,266.03-3.4,1.95-7.83,3.89-15.67,5.84-23.55,21.87,7.16,68.02,40.57,88.27,72.5-2.74,1.36-5.34,3.77-7.99,3.82-32.21.63-64.43.93-96.64,1.21-1.78.01-3.58-.9-5.76-1.48,2.92-6.98,5.52-13.22,8.62-20.67-84.94-19.73-169.87-23.67-256.62-8.19,0-4.18.18-7.08-.04-9.97-.21-2.68-.87-5.33-1.72-10.3v.03h.01Z"/>
      <path class="cls-4" d="m117.72,518.46c-12.83.37-25.66.75-38.49,1.14v-2.74c15.75-32.96,38.38-59.88,68.96-80.03,3.53,7.3,6.65,13.76,10.39,21.51,69.49-25.48,140.41-43.55,215.02-49.62,1.11,6.68,2.1,12.62,3.01,18.07-72.15,8.28-139.53,29.92-204.69,60.51,3.56,6.69,6.72,12.63,10.81,20.3-21.06,5.73-41.3,11.27-62.74,10.75-.75.03-1.51.07-2.28.1h0Z"/>
      <path class="cls-3" d="m528.76,107.72c.37,32.27-10.84,60.12-20.43,89.49-7.38-4.69-13.37-8.47-20.09-12.74-44.67,53.34-73.05,111.8-66.21,183.36-7.3.67-13.1,1.23-18.83,1.75-10.21-74.38,11.56-139.87,55.16-199.66-8.28-4.72-15.21-8.65-22.51-12.81,24.22-29.16,59.58-35.85,92.91-49.4h0Z"/>
      <path class="cls-5" d="m253.57,558.01c7.71,6,14.3,11.12,21.26,16.54,41.02-41.55,76.21-87.14,111.1-133.29,5.34,2.32,9.98,4.34,15.97,6.93-.81,2.71-1,5.91-2.54,8.19-23.62,34.67-47.27,69.31-71.25,103.72-7.42,10.66-15.84,20.64-23.77,30.96-.7.93-1.15,2.05-2.16,3.88,6.54,4.6,12.87,9.04,20.36,14.3-29.59,24.21-64.79,34.28-101.78,44.59,4.07-35.33,15.27-66.27,32.81-95.85v.03h0Z"/>
      <path class="cls-3" d="m194.35,245.89c27.78-2.37,53.29,7.29,79.64,11.17,5.94,3.01,12.11,6.12,19.7,9.97-6.44,5.54-12.14,10.45-18.97,16.32,15.18,20.16,35.93,33.8,54.5,49.64,18.7,15.94,38.08,31.08,57.89,47.15-2.74,3.29-6.59,7.93-11.38,13.7-42.9-29.58-85.67-59.05-130.49-89.96-4.07,5.46-8.82,11.83-13.53,18.14-14.83-14.46-33.07-52.45-37.39-76.15l.03.03Z"/>
      <path class="cls-1" d="m416.01,443.3c-16.84,1.48-27.99-6.66-35.58-20.88-3.83-7.17-.7-24.35,4.33-32.17,10.46-16.26,37.92-18.08,51.73-9.22,20.39,13.07,24.3,36.18,6.72,52.81-7.17,6.78-16.51,11.14-27.2,9.46Z"/>
      <path class="cls-3" d="m473.57,330.23c-.76,1-1.53,2.01-2.29,2.99.76-1,1.53-2.01,2.29-2.99Z"/>
      <path class="cls-3" d="m79.24,516.86v2.74c-.45-.21-.88-.42-1.32-.64.43-.7.88-1.39,1.32-2.1Z"/>
      <path class="cls-3" d="m117.72,518.46c.76-.03,1.53-.07,2.28-.1-.76.03-1.53.07-2.28.1Z"/>
      <path class="cls-3" d="m448.15,354.3c-.37.39-.76.78-1.12,1.17.39-.39.76-.78,1.12-1.17Z"/>
      <path class="cls-5" d="m689.56,188.3c-.52.07-1.06.13-1.59.21.54-.07,1.06-.13,1.59-.21Z"/>
      <path class="cls-3" d="m452.37,350.63c-.25.09-.52.18-.78.25l.28-.42.49.16Z"/>
      <polygon class="cls-5" points="727.37 188.65 727.03 188.72 726.91 188.39 727.24 188.18 727.37 188.65"/>
      <path class="cls-3" d="m439.4,363.04s-.12.07-.12.06l.12-.06Z"/>
    </g>
  </g>
</svg>